<svg width="180" height="31" viewBox="0 0 180 31" fill="none" xmlns="http://www.w3.org/2000/svg">
<path d="M0.703995 23V22.68L1.37599 22.424C1.82399 22.2533 2.10133 22.0507 2.20799 21.816C2.33599 21.56 2.39999 21.2187 2.39999 20.792V4.08799C2.39999 3.66133 2.33599 3.31999 2.20799 3.06399C2.07999 2.80799 1.80266 2.60533 1.37599 2.45599L0.703995 2.19999V1.87999H8.86399V2.19999L8.28799 2.45599C7.88266 2.60533 7.60533 2.81866 7.456 3.09599C7.30666 3.35199 7.232 3.69333 7.232 4.11999V22.36H12.16C12.9493 22.36 13.5253 22.168 13.888 21.784C14.272 21.4 14.6347 20.8453 14.976 20.12L16.224 17.432H16.544L16.256 23H0.703995Z" fill="#2F2A2B"/>
<path d="M22.5932 23.48C21.3559 23.48 20.3106 23.128 19.4572 22.424C18.6252 21.72 18.2092 20.7067 18.2092 19.384C18.2092 18.3813 18.7212 17.464 19.7452 16.632C20.7692 15.7787 22.3799 15.1387 24.5772 14.712C24.9186 14.648 25.3026 14.584 25.7292 14.52C26.1559 14.4347 26.6039 14.3493 27.0732 14.264V11.736C27.0732 10.2853 26.8919 9.27199 26.5292 8.69599C26.1879 8.09866 25.6439 7.79999 24.8972 7.79999C24.3852 7.79999 23.9799 7.97066 23.6812 8.31199C23.3826 8.63199 23.1906 9.19733 23.1052 10.008L23.0412 10.36C22.9986 11.2773 22.7746 11.9493 22.3692 12.376C21.9639 12.8027 21.4626 13.016 20.8652 13.016C20.3106 13.016 19.8519 12.8453 19.4892 12.504C19.1266 12.1627 18.9452 11.704 18.9452 11.128C18.9452 10.2533 19.2439 9.51733 19.8412 8.91999C20.4599 8.32266 21.2706 7.87466 22.2732 7.57599C23.2759 7.27733 24.3639 7.12799 25.5372 7.12799C27.4359 7.12799 28.8972 7.59733 29.9212 8.53599C30.9666 9.45333 31.4892 10.9573 31.4892 13.048V20.12C31.4892 21.08 31.9372 21.56 32.8332 21.56H33.5372L33.8252 21.816C33.4199 22.328 32.9719 22.7227 32.4812 23C32.0119 23.2773 31.3399 23.416 30.4652 23.416C29.5266 23.416 28.7799 23.2027 28.2252 22.776C27.6919 22.328 27.3399 21.7413 27.1692 21.016C26.5292 21.6987 25.8679 22.2853 25.1852 22.776C24.5239 23.2453 23.6599 23.48 22.5932 23.48ZM24.5452 21.528C24.9719 21.528 25.3666 21.432 25.7292 21.24C26.1132 21.0267 26.5612 20.7067 27.0732 20.28V14.904C26.8599 14.9467 26.6466 14.9893 26.4332 15.032C26.2199 15.0747 25.9746 15.1173 25.6972 15.16C24.7159 15.416 23.9266 15.8533 23.3292 16.472C22.7532 17.0693 22.4652 17.88 22.4652 18.904C22.4652 19.7787 22.6679 20.44 23.0732 20.888C23.4786 21.3147 23.9692 21.528 24.5452 21.528Z" fill="#2F2A2B"/>
<path d="M38.3237 5.46399C37.5984 5.46399 36.9797 5.23999 36.4677 4.79199C35.9771 4.32266 35.7317 3.73599 35.7317 3.03199C35.7317 2.30666 35.9771 1.71999 36.4677 1.27199C36.9797 0.823993 37.5984 0.599993 38.3237 0.599993C39.0491 0.599993 39.6571 0.823993 40.1477 1.27199C40.6384 1.71999 40.8837 2.30666 40.8837 3.03199C40.8837 3.73599 40.6384 4.32266 40.1477 4.79199C39.6571 5.23999 39.0491 5.46399 38.3237 5.46399ZM34.5477 23V22.68L34.9957 22.552C35.4224 22.424 35.7104 22.232 35.8597 21.976C36.0304 21.72 36.1157 21.3787 36.1157 20.952V10.936C36.1157 10.488 36.0304 10.1573 35.8597 9.94399C35.7104 9.70933 35.4224 9.54933 34.9957 9.46399L34.5477 9.36799V9.04799L40.4037 7.15999L40.7237 7.47999L40.6277 12.024V20.984C40.6277 21.4107 40.7024 21.752 40.8517 22.008C41.0224 22.264 41.3104 22.456 41.7157 22.584L42.0357 22.68V23H34.5477Z" fill="#2F2A2B"/>
<path d="M43.5485 23V22.488L52.2845 8.24799H47.4525C46.8978 8.24799 46.4605 8.39733 46.1405 8.69599C45.8205 8.99466 45.5218 9.38933 45.2445 9.87999L44.0925 12.024H43.7725L43.9965 7.60799H56.7965V8.05599L48.2525 22.36H53.2765C53.9592 22.36 54.4605 22.2 54.7805 21.88C55.1005 21.56 55.3992 21.1227 55.6765 20.568L56.7965 18.2H57.1165L56.8285 23H43.5485Z" fill="#2F2A2B"/>
<path d="M62.9995 23.48C61.7622 23.48 60.7168 23.128 59.8635 22.424C59.0315 21.72 58.6155 20.7067 58.6155 19.384C58.6155 18.3813 59.1275 17.464 60.1515 16.632C61.1755 15.7787 62.7862 15.1387 64.9835 14.712C65.3248 14.648 65.7088 14.584 66.1355 14.52C66.5622 14.4347 67.0102 14.3493 67.4795 14.264V11.736C67.4795 10.2853 67.2982 9.27199 66.9355 8.69599C66.5942 8.09866 66.0502 7.79999 65.3035 7.79999C64.7915 7.79999 64.3862 7.97066 64.0875 8.31199C63.7888 8.63199 63.5968 9.19733 63.5115 10.008L63.4475 10.36C63.4048 11.2773 63.1808 11.9493 62.7755 12.376C62.3702 12.8027 61.8688 13.016 61.2715 13.016C60.7168 13.016 60.2582 12.8453 59.8955 12.504C59.5328 12.1627 59.3515 11.704 59.3515 11.128C59.3515 10.2533 59.6502 9.51733 60.2475 8.91999C60.8662 8.32266 61.6768 7.87466 62.6795 7.57599C63.6822 7.27733 64.7702 7.12799 65.9435 7.12799C67.8422 7.12799 69.3035 7.59733 70.3275 8.53599C71.3728 9.45333 71.8955 10.9573 71.8955 13.048V20.12C71.8955 21.08 72.3435 21.56 73.2395 21.56H73.9435L74.2315 21.816C73.8262 22.328 73.3782 22.7227 72.8875 23C72.4182 23.2773 71.7462 23.416 70.8715 23.416C69.9328 23.416 69.1862 23.2027 68.6315 22.776C68.0982 22.328 67.7462 21.7413 67.5755 21.016C66.9355 21.6987 66.2742 22.2853 65.5915 22.776C64.9302 23.2453 64.0662 23.48 62.9995 23.48ZM64.9515 21.528C65.3782 21.528 65.7728 21.432 66.1355 21.24C66.5195 21.0267 66.9675 20.7067 67.4795 20.28V14.904C67.2662 14.9467 67.0528 14.9893 66.8395 15.032C66.6262 15.0747 66.3808 15.1173 66.1035 15.16C65.1222 15.416 64.3328 15.8533 63.7355 16.472C63.1595 17.0693 62.8715 17.88 62.8715 18.904C62.8715 19.7787 63.0742 20.44 63.4795 20.888C63.8848 21.3147 64.3755 21.528 64.9515 21.528Z" fill="#2F2A2B"/>
<path d="M92.9307 23.576C90.8614 23.576 88.9841 23.16 87.2987 22.328C85.6347 21.4747 84.3121 20.216 83.3307 18.552C82.3494 16.888 81.8587 14.8507 81.8587 12.44C81.8587 10.6053 82.1574 8.99466 82.7547 7.60799C83.3521 6.22133 84.1627 5.05866 85.1867 4.11999C86.2321 3.18133 87.4267 2.47733 88.7707 2.00799C90.1361 1.53866 91.5761 1.30399 93.0907 1.30399C94.3067 1.30399 95.4267 1.44266 96.4507 1.71999C97.4747 1.99733 98.4347 2.38133 99.3307 2.87199L99.4587 6.80799H99.1387L97.5387 4.24799C97.3254 3.84266 97.0907 3.47999 96.8347 3.15999C96.5787 2.81866 96.2587 2.56266 95.8747 2.39199C95.5547 2.24266 95.2347 2.13599 94.9147 2.07199C94.6161 1.98666 94.2321 1.94399 93.7627 1.94399C92.5254 1.94399 91.3947 2.27466 90.3707 2.93599C89.3681 3.59733 88.5574 4.69599 87.9387 6.23199C87.3414 7.74666 87.0427 9.82666 87.0427 12.472C87.0427 15.096 87.3307 17.176 87.9067 18.712C88.4827 20.2267 89.2614 21.3147 90.2427 21.976C91.2454 22.616 92.3654 22.936 93.6027 22.936C94.2854 22.936 94.8294 22.8933 95.2347 22.808C95.6401 22.7013 96.0454 22.552 96.4507 22.36C96.8561 22.1893 97.1654 21.944 97.3787 21.624C97.5921 21.2827 97.7841 20.92 97.9547 20.536L99.3627 17.4H99.6827L99.5867 21.976C98.6907 22.4453 97.6881 22.8293 96.5787 23.128C95.4694 23.4267 94.2534 23.576 92.9307 23.576Z" fill="#2F2A2B"/>
<path d="M105.812 23.48C104.575 23.48 103.529 23.128 102.676 22.424C101.844 21.72 101.428 20.7067 101.428 19.384C101.428 18.3813 101.94 17.464 102.964 16.632C103.988 15.7787 105.599 15.1387 107.796 14.712C108.137 14.648 108.521 14.584 108.948 14.52C109.375 14.4347 109.823 14.3493 110.292 14.264V11.736C110.292 10.2853 110.111 9.27199 109.748 8.69599C109.407 8.09866 108.863 7.79999 108.116 7.79999C107.604 7.79999 107.199 7.97066 106.9 8.31199C106.601 8.63199 106.409 9.19733 106.324 10.008L106.26 10.36C106.217 11.2773 105.993 11.9493 105.588 12.376C105.183 12.8027 104.681 13.016 104.084 13.016C103.529 13.016 103.071 12.8453 102.708 12.504C102.345 12.1627 102.164 11.704 102.164 11.128C102.164 10.2533 102.463 9.51733 103.06 8.91999C103.679 8.32266 104.489 7.87466 105.492 7.57599C106.495 7.27733 107.583 7.12799 108.756 7.12799C110.655 7.12799 112.116 7.59733 113.14 8.53599C114.185 9.45333 114.708 10.9573 114.708 13.048V20.12C114.708 21.08 115.156 21.56 116.052 21.56H116.756L117.044 21.816C116.639 22.328 116.191 22.7227 115.7 23C115.231 23.2773 114.559 23.416 113.684 23.416C112.745 23.416 111.999 23.2027 111.444 22.776C110.911 22.328 110.559 21.7413 110.388 21.016C109.748 21.6987 109.087 22.2853 108.404 22.776C107.743 23.2453 106.879 23.48 105.812 23.48ZM107.764 21.528C108.191 21.528 108.585 21.432 108.948 21.24C109.332 21.0267 109.78 20.7067 110.292 20.28V14.904C110.079 14.9467 109.865 14.9893 109.652 15.032C109.439 15.0747 109.193 15.1173 108.916 15.16C107.935 15.416 107.145 15.8533 106.548 16.472C105.972 17.0693 105.684 17.88 105.684 18.904C105.684 19.7787 105.887 20.44 106.292 20.888C106.697 21.3147 107.188 21.528 107.764 21.528Z" fill="#2F2A2B"/>
<path d="M117.64 23V22.68L118.088 22.552C118.493 22.4453 118.771 22.264 118.92 22.008C119.091 21.752 119.187 21.4107 119.208 20.984V10.968C119.208 10.4987 119.133 10.1573 118.984 9.94399C118.835 9.70933 118.547 9.54933 118.12 9.46399L117.64 9.33599V9.01599L123.112 7.15999L123.432 7.47999L123.688 9.65599C124.392 8.95199 125.192 8.35466 126.088 7.86399C127.005 7.37333 127.955 7.12799 128.936 7.12799C129.96 7.12799 130.781 7.34133 131.4 7.76799C132.019 8.17333 132.488 8.81333 132.808 9.68799C133.64 8.89866 134.536 8.27999 135.496 7.83199C136.477 7.36266 137.427 7.12799 138.344 7.12799C139.859 7.12799 140.968 7.49066 141.672 8.21599C142.397 8.94133 142.76 10.0827 142.76 11.64V21.016C142.76 21.848 143.144 22.3707 143.912 22.584L144.264 22.68V23H136.872V22.68L137.192 22.584C137.597 22.456 137.875 22.264 138.024 22.008C138.195 21.752 138.28 21.4107 138.28 20.984V11.192C138.28 10.296 138.12 9.68799 137.8 9.36799C137.48 9.02666 136.968 8.85599 136.264 8.85599C135.709 8.85599 135.165 8.98399 134.632 9.23999C134.12 9.47466 133.576 9.83733 133 10.328C133.107 10.6693 133.171 11.0427 133.192 11.448C133.235 11.8533 133.256 12.28 133.256 12.728V21.016C133.277 21.848 133.661 22.3707 134.408 22.584L134.696 22.68V23H127.272V22.68L127.72 22.552C128.125 22.424 128.403 22.2427 128.552 22.008C128.723 21.752 128.808 21.4107 128.808 20.984V11.224C128.808 10.3707 128.648 9.76266 128.328 9.39999C128.029 9.03733 127.507 8.85599 126.76 8.85599C126.269 8.85599 125.779 8.98399 125.288 9.23999C124.797 9.47466 124.285 9.82666 123.752 10.296V21.016C123.752 21.848 124.125 22.3707 124.872 22.584L125.16 22.68V23H117.64Z" fill="#2F2A2B"/>
<path d="M149.355 5.46399C148.63 5.46399 148.011 5.23999 147.499 4.79199C147.008 4.32266 146.763 3.73599 146.763 3.03199C146.763 2.30666 147.008 1.71999 147.499 1.27199C148.011 0.823993 148.63 0.599993 149.355 0.599993C150.08 0.599993 150.688 0.823993 151.179 1.27199C151.67 1.71999 151.915 2.30666 151.915 3.03199C151.915 3.73599 151.67 4.32266 151.179 4.79199C150.688 5.23999 150.08 5.46399 149.355 5.46399ZM145.579 23V22.68L146.027 22.552C146.454 22.424 146.742 22.232 146.891 21.976C147.062 21.72 147.147 21.3787 147.147 20.952V10.936C147.147 10.488 147.062 10.1573 146.891 9.94399C146.742 9.70933 146.454 9.54933 146.027 9.46399L145.579 9.36799V9.04799L151.435 7.15999L151.755 7.47999L151.659 12.024V20.984C151.659 21.4107 151.734 21.752 151.883 22.008C152.054 22.264 152.342 22.456 152.747 22.584L153.067 22.68V23H145.579Z" fill="#2F2A2B"/>
<path d="M154.58 23V22.68L154.964 22.552C155.732 22.296 156.116 21.7627 156.116 20.952V3.83199C156.116 3.40533 156.03 3.08533 155.86 2.87199C155.689 2.63733 155.39 2.46666 154.964 2.35999L154.548 2.26399V1.94399L160.404 0.567993L160.788 0.855993L160.66 5.33599V16.28C160.66 17.0693 160.66 17.8587 160.66 18.648C160.681 19.416 160.692 20.184 160.692 20.952C160.692 21.3787 160.777 21.7307 160.948 22.008C161.118 22.264 161.406 22.456 161.812 22.584L162.228 22.68V23H154.58Z" fill="#2F2A2B"/>
<path d="M166.271 30.68C165.418 30.68 164.735 30.4667 164.223 30.04C163.733 29.6133 163.487 29.0693 163.487 28.408C163.487 27.8107 163.701 27.3307 164.127 26.968C164.554 26.6053 165.034 26.424 165.567 26.424C166.101 26.424 166.549 26.5307 166.911 26.744C167.274 26.9787 167.594 27.3093 167.871 27.736L168.095 27.992C168.565 28.632 169.034 28.6213 169.503 27.96C169.695 27.64 169.909 27.2133 170.143 26.68C170.399 26.168 170.687 25.4747 171.007 24.6L164.799 9.75199C164.65 9.34666 164.49 9.02666 164.319 8.79199C164.149 8.53599 163.871 8.32266 163.487 8.15199L162.911 7.92799V7.60799H170.88V7.89599L170.24 8.15199C169.77 8.30133 169.525 8.54666 169.503 8.88799C169.503 9.20799 169.589 9.61333 169.759 10.104L173.087 18.744L176.255 10.008C176.426 9.51733 176.49 9.11199 176.447 8.79199C176.405 8.45066 176.138 8.21599 175.647 8.08799L174.975 7.92799V7.60799H179.423V7.92799L178.719 8.15199C178.229 8.30133 177.887 8.51466 177.695 8.79199C177.503 9.06933 177.322 9.45333 177.151 9.94399L171.999 23.992C171.167 26.232 170.335 27.9067 169.503 29.016C168.671 30.1253 167.594 30.68 166.271 30.68Z" fill="#2F2A2B"/>
</svg>
